<svg width="43" height="42" viewBox="0 0 43 42" fill="none" xmlns="http://www.w3.org/2000/svg">
<path d="M21.4917 0C22.1949 0 22.8433 0.398438 23.1636 1.02344L28.9058 12.2891L41.398 14.2734C42.0933 14.3828 42.6714 14.875 42.8902 15.5469C43.1089 16.2188 42.9292 16.9531 42.437 17.4531L33.4917 26.3984L35.4683 38.8906C35.5777 39.5859 35.2886 40.2891 34.7183 40.7031C34.148 41.1172 33.3902 41.1797 32.7652 40.8594L21.4917 35.125L10.2183 40.8594C9.5933 41.1797 8.83548 41.1172 8.26517 40.7031C7.69486 40.2891 7.4058 39.5938 7.51517 38.8906L9.48392 26.3984L0.54642 17.4531C0.0464203 16.9531 -0.125455 16.2188 0.0932953 15.5469C0.312045 14.875 0.882358 14.3828 1.58548 14.2734L14.0777 12.2891L19.8277 1.02344C20.148 0.398438 20.7964 0 21.4995 0H21.4917ZM21.4917 6L16.9761 14.8438C16.7027 15.375 16.1949 15.75 15.6011 15.8438L5.79642 17.4062L12.812 24.4297C13.2339 24.8516 13.4292 25.4531 13.3355 26.0469L11.7886 35.8516L20.6402 31.3516C21.1714 31.0781 21.8042 31.0781 22.3433 31.3516L31.1949 35.8516L29.648 26.0469C29.5542 25.4531 29.7495 24.8516 30.1714 24.4297L37.187 17.4062L27.3824 15.8438C26.7886 15.75 26.2808 15.375 26.0074 14.8438L21.4917 6Z" fill="black"/>
</svg>
