<?xml version="1.0" standalone="no"?>
<!DOCTYPE svg PUBLIC "-//W3C//DTD SVG 20010904//EN"
 "http://www.w3.org/TR/2001/REC-SVG-20010904/DTD/svg10.dtd">
<svg version="1.0" xmlns="http://www.w3.org/2000/svg"
 width="512.000000pt" height="512.000000pt" viewBox="0 0 512.000000 512.000000"
 preserveAspectRatio="xMidYMid meet">

<g transform="translate(0.000000,512.000000) scale(0.100000,-0.100000)"
fill="#000000" stroke="none">
<path d="M2194 5107 c-25 -14 18 26 -1204 -1109 -520 -482 -953 -891 -964
-908 -10 -17 -20 -57 -23 -88 -7 -80 32 -154 101 -197 l49 -30 243 -3 243 -4
3 -791 3 -792 24 -58 c44 -111 143 -207 258 -250 58 -22 62 -22 893 -25 578
-2 846 0 872 8 69 20 101 102 62 159 -37 52 -21 51 -909 51 -723 0 -830 2
-863 15 -47 20 -78 50 -105 100 -22 40 -22 44 -27 891 -5 912 -3 867 -54 897
-14 8 -110 14 -298 17 l-277 5 362 335 c198 184 651 604 1005 933 354 328 648
597 652 597 5 0 168 -147 363 -327 194 -181 374 -347 400 -370 40 -37 53 -43
89 -43 45 0 78 19 97 57 7 14 11 106 11 267 l0 246 215 0 215 0 0 -552 0 -553
93 -90 c51 -49 143 -136 205 -192 103 -96 114 -103 152 -103 75 0 128 79 97
144 -8 18 -87 99 -176 182 l-161 149 0 573 c0 636 2 620 -65 648 -49 20 -670
21 -718 1 -60 -25 -62 -32 -67 -239 l-5 -189 -330 306 c-181 169 -343 315
-360 326 -34 22 -70 24 -101 6z"/>
<path d="M3856 2754 c-508 -101 -866 -533 -866 -1048 0 -412 224 -864 677
-1368 117 -130 308 -311 347 -329 14 -7 40 -9 63 -4 33 6 66 34 234 203 299
301 481 543 625 828 191 377 231 711 123 1020 -126 363 -443 634 -816 699
-104 18 -294 18 -387 -1z m404 -219 c152 -40 311 -135 415 -247 234 -252 291
-584 163 -948 -36 -103 -116 -266 -186 -378 -117 -188 -328 -447 -514 -630
l-84 -82 -126 127 c-374 379 -608 744 -694 1082 -81 317 -9 610 204 833 135
142 305 231 497 261 59 10 261 -2 325 -18z"/>
<path d="M3925 2113 c-121 -44 -205 -118 -258 -231 -30 -63 -32 -74 -32 -177
0 -105 2 -113 34 -180 132 -270 485 -327 690 -110 201 212 140 546 -123 675
-62 31 -80 35 -165 37 -73 3 -108 -1 -146 -14z m224 -219 c132 -66 157 -229
51 -334 -105 -106 -268 -81 -334 51 -44 90 -31 175 39 245 69 69 154 82 244
38z"/>
</g>
</svg>
