<svg width="29" height="7" viewBox="0 0 29 7" fill="none" xmlns="http://www.w3.org/2000/svg">
<path d="M1.11461e-05 3.38632V2.77268C1.11461e-05 2.2348 0.10986 1.75753 0.329557 1.34086C0.549254 0.924198 0.861754 0.596546 1.26706 0.35791C1.67236 0.119274 2.15153 -4.48227e-05 2.70456 -4.48227e-05C3.54547 -4.48227e-05 4.20645 0.261319 4.68751 0.784046C5.16857 1.30299 5.4091 1.96586 5.4091 2.77268V3.38632C5.4091 3.9242 5.30115 4.39958 5.08524 4.81246C4.86933 5.22533 4.56062 5.5492 4.1591 5.78405C3.75759 6.01889 3.28031 6.13632 2.72728 6.13632C1.88637 6.13632 1.2216 5.88064 0.732966 5.36927C0.244329 4.85412 1.11461e-05 4.19314 1.11461e-05 3.38632ZM1.36365 2.77268V3.38632C1.36365 3.85223 1.47728 4.23859 1.70456 4.54541C1.93183 4.84844 2.27274 4.99996 2.72728 4.99996C3.17047 4.99996 3.50001 4.84844 3.71592 4.54541C3.93562 4.23859 4.04547 3.85223 4.04547 3.38632V2.77268C4.04547 2.31814 3.93562 1.93556 3.71592 1.62496C3.49622 1.31435 3.1591 1.15905 2.70456 1.15905C2.26137 1.15905 1.92615 1.31435 1.69887 1.62496C1.47539 1.93556 1.36365 2.31814 1.36365 2.77268ZM11.6875 3.38632V2.77268C11.6875 2.2348 11.7974 1.75753 12.0171 1.34086C12.2368 0.924198 12.5493 0.596546 12.9546 0.35791C13.3599 0.119274 13.839 -4.48227e-05 14.3921 -4.48227e-05C15.233 -4.48227e-05 15.894 0.261319 16.375 0.784046C16.8561 1.30299 17.0966 1.96586 17.0966 2.77268V3.38632C17.0966 3.9242 16.9886 4.39958 16.7727 4.81246C16.5568 5.22533 16.2481 5.5492 15.8466 5.78405C15.4451 6.01889 14.9678 6.13632 14.4148 6.13632C13.5739 6.13632 12.9091 5.88064 12.4205 5.36927C11.9318 4.85412 11.6875 4.19314 11.6875 3.38632ZM13.0511 2.77268V3.38632C13.0511 3.85223 13.1648 4.23859 13.3921 4.54541C13.6193 4.84844 13.9602 4.99996 14.4148 4.99996C14.858 4.99996 15.1875 4.84844 15.4034 4.54541C15.6231 4.23859 15.733 3.85223 15.733 3.38632V2.77268C15.733 2.31814 15.6231 1.93556 15.4034 1.62496C15.1837 1.31435 14.8466 1.15905 14.3921 1.15905C13.9489 1.15905 13.6136 1.31435 13.3864 1.62496C13.1629 1.93556 13.0511 2.31814 13.0511 2.77268ZM23.375 3.38632V2.77268C23.375 2.2348 23.4849 1.75753 23.7046 1.34086C23.9243 0.924198 24.2368 0.596546 24.6421 0.35791C25.0474 0.119274 25.5265 -4.48227e-05 26.0796 -4.48227e-05C26.9205 -4.48227e-05 27.5815 0.261319 28.0625 0.784046C28.5436 1.30299 28.7841 1.96586 28.7841 2.77268V3.38632C28.7841 3.9242 28.6761 4.39958 28.4602 4.81246C28.2443 5.22533 27.9356 5.5492 27.5341 5.78405C27.1326 6.01889 26.6553 6.13632 26.1023 6.13632C25.2614 6.13632 24.5966 5.88064 24.108 5.36927C23.6193 4.85412 23.375 4.19314 23.375 3.38632ZM24.7386 2.77268V3.38632C24.7386 3.85223 24.8523 4.23859 25.0796 4.54541C25.3068 4.84844 25.6477 4.99996 26.1023 4.99996C26.5455 4.99996 26.875 4.84844 27.0909 4.54541C27.3106 4.23859 27.4205 3.85223 27.4205 3.38632V2.77268C27.4205 2.31814 27.3106 1.93556 27.0909 1.62496C26.8712 1.31435 26.5341 1.15905 26.0796 1.15905C25.6364 1.15905 25.3011 1.31435 25.0739 1.62496C24.8504 1.93556 24.7386 2.31814 24.7386 2.77268Z" fill="#436359"/>
</svg>
